<svg height="40" version="1.1" id="Layer_1" xmlns="http://www.w3.org/2000/svg" x="0" y="0" viewBox="0 0 646 128" xml:space="preserve"><style>.st0{fill:#ffdd35}.st1{fill:#494545}</style><path class="st0" d="M55.6 92.5c0 9.8-6.9 16.3-16.6 16.3-10.6 0-18.1-7.9-18.1-17.6 0-9.8 7.6-17.7 17.8-17.7 6.4 0 11.9 3.2 14.8 7.9l-5.7 3.3c-1.5-2.7-5-4.7-9.1-4.7-6.4 0-11.1 4.7-11.1 11.2 0 6.3 4.5 11 11.6 11 5.3 0 8.7-2.6 9.9-6.4H38.6v-5.9h17v2.6zM58.4 96c0-7.2 5.7-12.8 12.8-12.8C78.3 83.3 84 88.8 84 96c0 7.2-5.7 12.8-12.8 12.8-7.2 0-12.8-5.6-12.8-12.8zm19.3 0c0-3.9-2.9-6.7-6.6-6.7-3.7 0-6.5 2.8-6.5 6.7s2.9 6.7 6.5 6.7c3.8 0 6.6-2.8 6.6-6.7zM87.9 72.8h6.2v35.3h-6.2V72.8zM123.9 74.3v33.9h-6.2v-2.9c-1.7 2.2-4.3 3.5-7.8 3.5-6.5 0-11.8-5.6-11.8-12.8 0-7.2 5.3-12.8 11.8-12.8 3.5 0 6.1 1.3 7.8 3.5V74.3h6.2zM117.7 96c0-4.1-2.9-6.8-6.7-6.8-3.9 0-6.7 2.8-6.7 6.8 0 4.1 2.9 6.8 6.7 6.8 3.8 0 6.7-2.7 6.7-6.8z"/><path class="st1" d="M163.5 80.6h-9.1v27.5h-6.7V80.6h-9.1v-6.4h24.9v6.4zM177 83.4v7c-3.2-.4-7.4 1.1-7.4 6.1v11.6h-6.2V83.9h6.2v4.2c1.3-3.3 4.4-4.7 7.4-4.7zM202.4 83.9v24.2h-6.2v-2.7c-1.5 2.2-4 3.4-7.2 3.4-5.1 0-9.1-3.6-9.1-10V83.9h6.2V98c0 3.3 2 5 4.8 5 3 0 5.3-1.8 5.3-6V83.9h6.2zM225.7 101.1c0 5.2-4.5 7.7-9.7 7.7-4.8 0-8.4-2-10.2-5.8l5.4-3c.7 2 2.3 3.1 4.7 3.1 2 0 3.3-.7 3.3-2.1 0-3.5-12.5-1.6-12.5-10.1 0-4.9 4.2-7.7 9.2-7.7 3.9 0 7.3 1.8 9.2 5.1l-5.3 2.9c-.7-1.5-2.1-2.5-3.9-2.5-1.5 0-2.8.7-2.8 2 .1 3.7 12.6 1.5 12.6 10.4zM236.9 89.9V100c0 2.6 1.9 2.7 5.5 2.5v5.7c-8.8 1-11.7-1.6-11.7-8.1V89.9h-4.2v-6h4.2V79l6.2-1.9v6.8h5.5v6h-5.5zM257.7 103.1c2.4 0 4.4-1 5.4-2.4l5 2.9c-2.3 3.3-5.9 5.2-10.5 5.2-8.1 0-13.3-5.6-13.3-12.8 0-7.2 5.2-12.8 12.8-12.8 7.2 0 12.2 5.7 12.2 12.8 0 .9-.1 1.7-.2 2.6h-18.2c.8 3.2 3.5 4.5 6.8 4.5zm5.4-9.4c-.8-3.5-3.4-4.9-6-4.9-3.3 0-5.6 1.8-6.3 4.9h12.3zM297.6 74.3v33.9h-6.2v-2.9c-1.7 2.2-4.3 3.5-7.8 3.5-6.5 0-11.8-5.6-11.8-12.8 0-7.2 5.3-12.8 11.8-12.8 3.5 0 6.1 1.3 7.8 3.5V74.3h6.2zM291.4 96c0-4.1-2.9-6.8-6.7-6.8-3.9 0-6.7 2.8-6.7 6.8 0 4.1 2.9 6.8 6.7 6.8 3.8 0 6.7-2.7 6.7-6.8zM313 100.4l5.7-3.3c1.2 3.1 3.6 5.2 7.8 5.2 4 0 5.4-1.7 5.4-3.6 0-2.5-2.3-3.5-7.3-4.9-5.2-1.5-10.2-3.7-10.2-10.1 0-6.4 5.3-10.1 11.1-10.1 5.6 0 9.8 2.9 12.1 7.6l-5.6 3.2c-1.2-2.6-3-4.4-6.5-4.4-2.8 0-4.5 1.5-4.5 3.4 0 2.1 1.3 3.2 6.4 4.7 5.4 1.7 11.1 3.5 11.1 10.4 0 6.3-5.1 10.2-12.3 10.2-6.8.1-11.3-3.2-13.2-8.3zM355 103.1c2.4 0 4.4-1 5.4-2.4l5 2.9c-2.3 3.3-5.9 5.2-10.5 5.2-8.1 0-13.3-5.6-13.3-12.8 0-7.2 5.2-12.8 12.8-12.8 7.2 0 12.2 5.7 12.2 12.8 0 .9-.1 1.7-.2 2.6h-18.2c.8 3.2 3.5 4.5 6.8 4.5zm5.4-9.4c-.8-3.5-3.4-4.9-6-4.9-3.3 0-5.6 1.8-6.3 4.9h12.3zM384.1 83.4v7c-3.2-.4-7.4 1.1-7.4 6.1v11.6h-6.2V83.9h6.2v4.2c1.3-3.3 4.3-4.7 7.4-4.7zM410.1 83.9l-9.2 24.2h-7.1l-9.2-24.2h6.9l5.9 16.9 5.9-16.9h6.8zM411.9 77.2c0-2.1 1.7-3.9 3.8-3.9 2.1 0 3.9 1.8 3.9 3.9s-1.7 3.8-3.9 3.8c-2.1 0-3.8-1.7-3.8-3.8zm.7 6.7h6.2v24.2h-6.2V83.9zM422.8 96c0-7.2 5.4-12.8 12.8-12.8 4.7 0 8.9 2.5 10.8 6.2l-5.4 3.1c-1-2-3-3.2-5.5-3.2-3.7 0-6.5 2.8-6.5 6.6s2.8 6.6 6.5 6.6c2.5 0 4.6-1.2 5.6-3.2l5.4 3.1c-2.1 3.8-6.2 6.3-10.9 6.3-7.4.1-12.8-5.5-12.8-12.7zM461 103.1c2.4 0 4.4-1 5.4-2.4l5 2.9c-2.3 3.3-5.9 5.2-10.5 5.2-8.1 0-13.3-5.6-13.3-12.8 0-7.2 5.2-12.8 12.8-12.8 7.2 0 12.2 5.7 12.2 12.8 0 .9-.1 1.7-.2 2.6h-18.2c.9 3.2 3.6 4.5 6.8 4.5zm5.5-9.4c-.8-3.5-3.4-4.9-6-4.9-3.3 0-5.6 1.8-6.3 4.9h12.3zM508.2 102h-13.5l-2 6.1h-7.2l11.9-33.9h8.3l11.9 33.9h-7.3l-2.1-6.1zm-2.1-6.2L501.5 82l-4.6 13.8h9.2zM552.9 83.9l-7.7 24.2h-5.9l-4.5-14.7-4.5 14.7h-5.9l-7.7-24.2h6.6l4.1 14.8 4.4-14.8h5.9l4.4 14.9 4.1-14.9h6.7zM579.5 83.9v24.2h-6.2v-2.9c-1.7 2.2-4.4 3.5-7.9 3.5-6.4 0-11.8-5.6-11.8-12.8 0-7.2 5.3-12.8 11.8-12.8 3.5 0 6.1 1.4 7.9 3.5v-2.9h6.2zM573.2 96c0-4.1-2.9-6.8-6.7-6.8-3.8 0-6.7 2.8-6.7 6.8 0 4.1 2.9 6.8 6.7 6.8 3.9 0 6.7-2.7 6.7-6.8zM598.3 83.4v7c-3.2-.4-7.4 1.1-7.4 6.1v11.6h-6.2V83.9h6.2v4.2c1.3-3.3 4.3-4.7 7.4-4.7zM625.1 74.3v33.9h-6.2v-2.9c-1.7 2.2-4.3 3.5-7.8 3.5-6.5 0-11.8-5.6-11.8-12.8 0-7.2 5.3-12.8 11.8-12.8 3.5 0 6.1 1.3 7.8 3.5V74.3h6.2zM618.8 96c0-4.1-2.9-6.8-6.7-6.8-3.9 0-6.7 2.8-6.7 6.8 0 4.1 2.9 6.8 6.7 6.8 3.9 0 6.7-2.7 6.7-6.8z"/><path class="st0" d="M164.1 32.9c-.5-1.9-3.6-1.8-5.2-1.9l-9.9-1.2c-1.4-3-2.7-5.2-4.1-8.3-.7-1.5-1.4-4.9-3.6-4.8-2.1.1-2.9 3.4-3.6 4.9-1.4 3-2.6 5.4-4 8.4-3.2.5-6.3 1.1-9.5 1.6-1.5.3-4.6.2-5 2.2-.3 1.8 2.4 3.3 3.4 4.3 2.2 2 4.3 4 6.5 5.9-.7 3.1-1.3 6.9-2 9.9-.3 1.4-1.6 4.4 0 5.5 1.7 1.2 4.2-1.3 5.5-2.1 2.9-1.7 5.9-3.9 9.1-5.1 2.8 1.5 5.8 3.7 8.6 5.1 1.3.6 4.1 2.8 5.6 1.6 1.4-1.1.1-3.8-.3-5.1-.8-3-1.5-6.7-2.3-9.8 2.4-2.2 4.9-4.4 7.3-6.6 1.2-.9 4-2.7 3.5-4.5M221.1 32.9c-.5-1.9-3.6-1.8-5.2-1.9l-9.9-1.2c-1.4-3-2.7-5.2-4.1-8.3-.7-1.5-1.4-4.9-3.6-4.8-2.1.1-2.9 3.4-3.6 4.9-1.4 3-2.6 5.4-4 8.4-3.2.5-6.3 1.1-9.5 1.6-1.5.3-4.6.2-5 2.2-.3 1.8 2.4 3.3 3.4 4.3 2.2 2 4.3 4 6.5 5.9-.7 3.1-1.3 6.9-2 9.9-.3 1.4-1.6 4.4 0 5.5 1.7 1.2 4.2-1.3 5.5-2.1 2.9-1.7 5.9-3.9 9.1-5.1 2.8 1.5 5.8 3.7 8.6 5.1 1.3.6 4.1 2.8 5.6 1.6 1.4-1.1.1-3.8-.3-5.1-.8-3-1.5-6.7-2.3-9.8 2.4-2.2 4.9-4.4 7.3-6.6 1.2-.9 4-2.7 3.5-4.5M278.1 32.9c-.5-1.9-3.6-1.8-5.2-1.9l-9.9-1.2c-1.4-3-2.7-5.2-4.1-8.3-.7-1.5-1.4-4.9-3.6-4.8-2.1.1-2.9 3.4-3.6 4.9-1.4 3-2.6 5.4-4 8.4-3.2.5-6.3 1.1-9.5 1.6-1.5.3-4.6.2-5 2.2-.3 1.8 2.4 3.3 3.4 4.3 2.2 2 4.3 4 6.5 5.9-.7 3.1-1.3 6.9-2 9.9-.3 1.4-1.6 4.4 0 5.5 1.7 1.2 4.2-1.3 5.5-2.1 2.9-1.7 5.9-3.9 9.1-5.1 2.8 1.5 5.8 3.7 8.6 5.1 1.3.6 4.1 2.8 5.6 1.6 1.4-1.1.1-3.8-.3-5.1-.8-3-1.5-6.7-2.3-9.8 2.4-2.2 4.9-4.4 7.3-6.6 1.2-.9 4-2.7 3.5-4.5M335.1 32.9c-.5-1.9-3.6-1.8-5.2-1.9l-9.9-1.2c-1.4-3-2.7-5.2-4.1-8.3-.7-1.5-1.4-4.9-3.6-4.8-2.1.1-2.9 3.4-3.6 4.9-1.4 3-2.6 5.4-4 8.4-3.2.5-6.3 1.1-9.5 1.6-1.5.3-4.6.2-5 2.2-.3 1.8 2.4 3.3 3.4 4.3 2.2 2 4.3 4 6.5 5.9-.7 3.1-1.3 6.9-2 9.9-.3 1.4-1.6 4.4 0 5.5 1.7 1.2 4.2-1.3 5.5-2.1 2.9-1.7 5.9-3.9 9.1-5.1 2.8 1.5 5.8 3.7 8.6 5.1 1.3.6 4.1 2.8 5.6 1.6 1.4-1.1.1-3.8-.3-5.1-.8-3-1.5-6.7-2.3-9.8 2.4-2.2 4.9-4.4 7.3-6.6 1.2-.9 4-2.7 3.5-4.5M392.1 32.9c-.5-1.9-3.6-1.8-5.2-1.9l-9.9-1.2c-1.4-3-2.7-5.2-4.1-8.3-.7-1.5-1.4-4.9-3.6-4.8-2.1.1-2.9 3.4-3.6 4.9-1.4 3-2.6 5.4-4 8.4-3.2.5-6.3 1.1-9.5 1.6-1.5.3-4.6.2-5 2.2-.3 1.8 2.4 3.3 3.4 4.3 2.2 2 4.3 4 6.5 5.9-.7 3.1-1.3 6.9-2 9.9-.3 1.4-1.6 4.4 0 5.5 1.7 1.2 4.2-1.3 5.5-2.1 2.9-1.7 5.9-3.9 9.1-5.1 2.8 1.5 5.8 3.7 8.6 5.1 1.3.6 4.1 2.8 5.6 1.6 1.4-1.1.1-3.8-.3-5.1-.8-3-1.5-6.7-2.3-9.8 2.4-2.2 4.9-4.4 7.3-6.6 1.2-.9 4-2.7 3.5-4.5"/><path class="st1" d="M456.7 47.3v-.9c0-10.3-6-16.6-14.8-16.6-3.8 0-7.4 1.5-10.2 4.3-2.7 2.7-4.2 6.3-4.2 10.1 0 3.9 1.4 7.4 4.1 10.2 2.8 3 6.2 4.4 10.4 4.4 6.2 0 10.7-2.9 13.4-8.7h-8.9c-1.2 1.1-2.6 1.5-4.2 1.5-3.5 0-5.7-1.5-6.4-4.5h20.8zm-8.2-5.7h-12.9c.6-2.6 3-4.4 6.4-4.4 3.2 0 5.5 1.5 6.5 4.4M487.4 47.3v-.9c0-10.3-6-16.6-14.8-16.6-3.7 0-7.4 1.5-10.2 4.3-2.7 2.7-4.2 6.3-4.2 10.1 0 3.9 1.4 7.4 4.1 10.2 2.8 3 6.2 4.4 10.4 4.4 6.2 0 10.7-2.9 13.4-8.7h-8.9c-1.2 1.1-2.6 1.5-4.2 1.5-3.5 0-5.7-1.5-6.4-4.5h20.8zm-8.2-5.7h-12.9c.6-2.6 3-4.4 6.4-4.4 3.2 0 5.5 1.5 6.5 4.4M416 36.8v21.4h8V36.8h3.2v-6.2H424V30c0-2.5.6-3.3 3-3.3h.2v-5.5c-.5 0-.9-.1-1.3-.1-6.8 0-10 2.7-10 8.6 0 .3.1.7.1 1h-3v6.2h3zM490.5 36.8v21.4h8V36.8h3.2v-6.2h-3.2V30c0-2.5.6-3.3 3-3.3h.2v-5.5c-.5 0-.9-.1-1.3-.1-6.8 0-10 2.7-10 8.6 0 .3.1.7.1 1h-3v6.2h3zM530.8 44.3c0-3.8-1.6-7.6-4.5-10.3-2.8-2.6-6.2-4-10.2-4-3.7 0-7.4 1.5-10.2 4.3-2.7 2.7-4.2 6.3-4.2 10.1 0 3.9 1.4 7.4 4.1 10.2 2.8 3 6.2 4.4 10.4 4.4s7.7-1.5 10.5-4.3c2.7-2.8 4.1-6.3 4.1-10.4m-8.1.2c0 3.8-2.9 6.8-6.5 6.8-3.5 0-6.5-3-6.5-6.8s2.9-6.8 6.5-6.8 6.5 3 6.5 6.8"/><path class="st0" d="M543.2 39.8c-3.9-.2-7-3.4-7.3-7.3H553v-.2c0-6.7-4.3-11.2-10.2-11.2-6.3 0-10.5 4.6-10.5 10.6 0 5.6 4.4 10.6 10.4 10.6 4.4 0 7.8-2.4 9.7-6.9h-1.7c-1.2 2.6-3.9 4.4-7 4.4h-.5M564.9 39.8c3.9-.2 7-3.4 7.3-7.3h-17.1v-.2c0-6.7 4.3-11.2 10.2-11.2 6.3 0 10.5 4.6 10.5 10.6 0 5.6-4.4 10.6-10.4 10.6-4.4 0-7.8-2.4-9.7-6.9h1.7c1.2 2.6 3.9 4.4 7 4.4h.5"/><g><path class="st1" d="M21.3 54.6l8.6-8.9c1.6-1.7 2.9-3.4 2.9-5 0-2-1.4-3.3-3.3-3.3s-3.4 1.2-4.2 3l-4.2-2.5c1.6-3.6 4.9-5.3 8.3-5.3 4.3 0 8.3 2.9 8.3 7.9 0 3.1-1.8 5.7-4.1 8.1l-4.9 4.9h9.5v4.8H21.3v-3.7zM40.3 45.7c0-7.8 3.7-13.1 10.1-13.1 6.5 0 10.1 5.3 10.1 13.1s-3.6 13.1-10.1 13.1c-6.4 0-10.1-5.3-10.1-13.1zm15.3 0c0-5.3-1.8-8.3-5.2-8.3-3.4 0-5.1 3-5.1 8.3 0 5.3 1.7 8.3 5.1 8.3 3.4 0 5.2-2.9 5.2-8.3zM62.1 54.6l8.6-8.9c1.6-1.7 2.9-3.4 2.9-5 0-2-1.4-3.3-3.3-3.3s-3.4 1.2-4.2 3l-4.2-2.5c1.6-3.6 4.9-5.3 8.3-5.3 4.3 0 8.3 2.9 8.3 7.9 0 3.1-1.8 5.7-4.1 8.1l-4.9 4.9H79v4.8H62.1v-3.7zM91.1 33.1v25.2h-5v-20l-4.8 1.3-1.2-4.3 6.6-2.3h4.4z"/></g></svg>
